# Blender v3.2.1 OBJ File: ''
# www.blender.org
mtllib test.mtl
o Circle
v 0.000000 0.000000 -1.000000
v 1.000430 0.868598 -1.000000
v 0.000000 0.000000 1.000000
v 1.000000 0.000000 -0.000000
v 0.980785 0.000000 -0.195090
v 0.923879 0.000000 -0.382684
v 0.831470 0.000000 -0.555570
v 0.707107 0.000000 -0.707107
v 0.555570 0.000000 -0.831470
v 0.382683 0.000000 -0.923880
v 0.195090 0.000000 -0.980785
v 0.000000 0.868598 -1.000000
v 1.000430 0.000000 -1.000000
v 1.000430 0.000000 0.000000
v 1.000430 0.868598 0.000000
v 1.000000 0.868598 -0.000000
v 0.980785 0.868598 -0.195090
v 0.923879 0.868598 -0.382684
v 0.831470 0.868598 -0.555570
v 0.707107 0.868598 -0.707107
v 0.555570 0.868598 -0.831470
v 0.382683 0.868598 -0.923880
v 0.195090 0.868598 -0.980785
vt 0.000000 0.000000
vt 0.000000 0.000000
vt 0.000000 0.000000
vt 0.000000 0.000000
vt 0.000000 0.000000
vt 0.000000 0.000000
vt 0.000000 0.000000
vt 0.000000 0.000000
vt 0.000000 0.000000
vt 0.000000 0.000000
vt 0.000000 0.000000
vt 0.000000 0.000000
vt 0.000000 0.000000
vt 0.000000 0.000000
vt 0.000000 0.000000
vt 0.000000 0.000000
vt 0.000000 0.000000
vt 0.000000 0.000000
vt 0.000000 0.000000
vt 0.000000 0.000000
vt 0.000000 0.000000
vt 0.000000 0.000000
vn -0.0980 0.0000 0.9952
vn 1.0000 0.0000 0.0000
vn -0.9952 0.0000 0.0980
vn -0.9569 0.0000 0.2903
vn -0.8819 0.0000 0.4714
vn 0.0000 0.0000 -1.0000
vn -0.7730 0.0000 0.6344
vn -0.6344 0.0000 0.7730
vn -0.4714 0.0000 0.8819
vn -0.2903 0.0000 0.9569
vn 0.0000 1.0000 0.0000
usemtl None
s off
f 1/1/1 11/2/1 23/3/1 12/4/1
f 13/5/2 2/6/2 15/7/2 14/8/2
f 5/9/3 4/10/3 16/11/3 17/12/3
f 6/13/4 5/9/4 17/12/4 18/14/4
f 7/15/5 6/13/5 18/14/5 19/16/5
f 1/1/6 12/4/6 2/6/6 13/5/6
f 8/17/7 7/15/7 19/16/7 20/18/7
f 9/19/8 8/17/8 20/18/8 21/20/8
f 10/21/9 9/19/9 21/20/9 22/22/9
f 11/2/10 10/21/10 22/22/10 23/3/10
f 15/7/11 2/6/11 12/4/11 23/3/11 22/22/11 21/20/11 20/18/11 19/16/11 18/14/11 17/12/11
